<mxfile host="Electron" agent="Mozilla/5.0 (Windows NT 10.0; Win64; x64) AppleWebKit/537.36 (KHTML, like Gecko) draw.io/28.1.2 Chrome/138.0.7204.243 Electron/37.4.0 Safari/537.36" version="28.1.2">
  <diagram name="หน้า-1" id="MBuQr7U_3kAHN-lTr56h">
    <mxGraphModel dx="2977" dy="1789" grid="1" gridSize="10" guides="1" tooltips="1" connect="1" arrows="1" fold="1" page="1" pageScale="1" pageWidth="827" pageHeight="1169" math="0" shadow="0">
      <root>
        <mxCell id="0" />
        <mxCell id="1" parent="0" />
        <mxCell id="gM34xEa_y_hhd152DctF-4" value="" style="edgeStyle=orthogonalEdgeStyle;rounded=0;orthogonalLoop=1;jettySize=auto;html=1;" edge="1" parent="1" source="gM34xEa_y_hhd152DctF-2" target="gM34xEa_y_hhd152DctF-3">
          <mxGeometry relative="1" as="geometry" />
        </mxCell>
        <mxCell id="gM34xEa_y_hhd152DctF-2" value="&lt;font style=&quot;font-size: 16px;&quot;&gt;เริ่มต้น&lt;/font&gt;" style="ellipse;whiteSpace=wrap;html=1;" vertex="1" parent="1">
          <mxGeometry x="196" y="60" width="120" height="80" as="geometry" />
        </mxCell>
        <mxCell id="gM34xEa_y_hhd152DctF-6" value="" style="edgeStyle=orthogonalEdgeStyle;rounded=0;orthogonalLoop=1;jettySize=auto;html=1;" edge="1" parent="1" source="gM34xEa_y_hhd152DctF-3" target="gM34xEa_y_hhd152DctF-5">
          <mxGeometry relative="1" as="geometry" />
        </mxCell>
        <mxCell id="gM34xEa_y_hhd152DctF-3" value="ประกาศตัวแปร score,result" style="whiteSpace=wrap;html=1;" vertex="1" parent="1">
          <mxGeometry x="196" y="190" width="120" height="60" as="geometry" />
        </mxCell>
        <mxCell id="gM34xEa_y_hhd152DctF-8" value="" style="edgeStyle=orthogonalEdgeStyle;rounded=0;orthogonalLoop=1;jettySize=auto;html=1;" edge="1" parent="1" source="gM34xEa_y_hhd152DctF-5" target="gM34xEa_y_hhd152DctF-7">
          <mxGeometry relative="1" as="geometry" />
        </mxCell>
        <mxCell id="gM34xEa_y_hhd152DctF-5" value="เเสดงข้อความ&amp;nbsp;enter score :" style="whiteSpace=wrap;html=1;" vertex="1" parent="1">
          <mxGeometry x="196" y="300" width="120" height="60" as="geometry" />
        </mxCell>
        <mxCell id="gM34xEa_y_hhd152DctF-10" value="" style="edgeStyle=orthogonalEdgeStyle;rounded=0;orthogonalLoop=1;jettySize=auto;html=1;" edge="1" parent="1" source="gM34xEa_y_hhd152DctF-7" target="gM34xEa_y_hhd152DctF-9">
          <mxGeometry relative="1" as="geometry" />
        </mxCell>
        <mxCell id="gM34xEa_y_hhd152DctF-7" value="รับค่า score" style="whiteSpace=wrap;html=1;" vertex="1" parent="1">
          <mxGeometry x="196" y="410" width="120" height="60" as="geometry" />
        </mxCell>
        <mxCell id="gM34xEa_y_hhd152DctF-12" value="" style="edgeStyle=orthogonalEdgeStyle;rounded=0;orthogonalLoop=1;jettySize=auto;html=1;" edge="1" parent="1" source="gM34xEa_y_hhd152DctF-9" target="gM34xEa_y_hhd152DctF-11">
          <mxGeometry relative="1" as="geometry" />
        </mxCell>
        <mxCell id="gM34xEa_y_hhd152DctF-15" value="" style="edgeStyle=orthogonalEdgeStyle;rounded=0;orthogonalLoop=1;jettySize=auto;html=1;" edge="1" parent="1" source="gM34xEa_y_hhd152DctF-9" target="gM34xEa_y_hhd152DctF-14">
          <mxGeometry relative="1" as="geometry" />
        </mxCell>
        <mxCell id="gM34xEa_y_hhd152DctF-9" value="&lt;font style=&quot;font-size: 16px;&quot;&gt;resultไม่เท่ากับ1 ?&lt;/font&gt;" style="rhombus;whiteSpace=wrap;html=1;" vertex="1" parent="1">
          <mxGeometry x="171" y="520" width="170" height="140" as="geometry" />
        </mxCell>
        <mxCell id="gM34xEa_y_hhd152DctF-77" style="edgeStyle=orthogonalEdgeStyle;rounded=0;orthogonalLoop=1;jettySize=auto;html=1;entryX=0.5;entryY=0;entryDx=0;entryDy=0;" edge="1" parent="1" source="gM34xEa_y_hhd152DctF-11" target="gM34xEa_y_hhd152DctF-51">
          <mxGeometry relative="1" as="geometry" />
        </mxCell>
        <mxCell id="gM34xEa_y_hhd152DctF-11" value="เเสดง&amp;nbsp;please enter number only." style="whiteSpace=wrap;html=1;" vertex="1" parent="1">
          <mxGeometry x="446" y="560" width="120" height="60" as="geometry" />
        </mxCell>
        <mxCell id="gM34xEa_y_hhd152DctF-13" value="&lt;font style=&quot;font-size: 16px;&quot;&gt;ใช่&lt;/font&gt;" style="text;html=1;align=center;verticalAlign=middle;resizable=0;points=[];autosize=1;strokeColor=none;fillColor=none;" vertex="1" parent="1">
          <mxGeometry x="346" y="558" width="40" height="30" as="geometry" />
        </mxCell>
        <mxCell id="gM34xEa_y_hhd152DctF-18" value="" style="edgeStyle=orthogonalEdgeStyle;rounded=0;orthogonalLoop=1;jettySize=auto;html=1;" edge="1" parent="1" source="gM34xEa_y_hhd152DctF-14" target="gM34xEa_y_hhd152DctF-17">
          <mxGeometry relative="1" as="geometry" />
        </mxCell>
        <mxCell id="gM34xEa_y_hhd152DctF-20" value="" style="edgeStyle=orthogonalEdgeStyle;rounded=0;orthogonalLoop=1;jettySize=auto;html=1;" edge="1" parent="1" source="gM34xEa_y_hhd152DctF-14" target="gM34xEa_y_hhd152DctF-19">
          <mxGeometry relative="1" as="geometry" />
        </mxCell>
        <mxCell id="gM34xEa_y_hhd152DctF-14" value="&lt;span style=&quot;font-size: 16px;&quot;&gt;scoreน้ายกว่า50?&lt;/span&gt;" style="rhombus;whiteSpace=wrap;html=1;" vertex="1" parent="1">
          <mxGeometry x="171" y="710" width="170" height="140" as="geometry" />
        </mxCell>
        <mxCell id="gM34xEa_y_hhd152DctF-16" value="&lt;font style=&quot;font-size: 16px;&quot;&gt;ไม่&lt;/font&gt;" style="text;html=1;align=center;verticalAlign=middle;resizable=0;points=[];autosize=1;strokeColor=none;fillColor=none;" vertex="1" parent="1">
          <mxGeometry x="270" y="670" width="40" height="30" as="geometry" />
        </mxCell>
        <mxCell id="gM34xEa_y_hhd152DctF-76" value="" style="edgeStyle=orthogonalEdgeStyle;rounded=0;orthogonalLoop=1;jettySize=auto;html=1;" edge="1" parent="1" source="gM34xEa_y_hhd152DctF-17" target="gM34xEa_y_hhd152DctF-51">
          <mxGeometry relative="1" as="geometry" />
        </mxCell>
        <mxCell id="gM34xEa_y_hhd152DctF-17" value="เเสดง&amp;nbsp;F !" style="whiteSpace=wrap;html=1;" vertex="1" parent="1">
          <mxGeometry x="446" y="750" width="120" height="60" as="geometry" />
        </mxCell>
        <mxCell id="gM34xEa_y_hhd152DctF-22" value="" style="edgeStyle=orthogonalEdgeStyle;rounded=0;orthogonalLoop=1;jettySize=auto;html=1;" edge="1" parent="1" source="gM34xEa_y_hhd152DctF-19" target="gM34xEa_y_hhd152DctF-21">
          <mxGeometry relative="1" as="geometry" />
        </mxCell>
        <mxCell id="gM34xEa_y_hhd152DctF-24" value="" style="edgeStyle=orthogonalEdgeStyle;rounded=0;orthogonalLoop=1;jettySize=auto;html=1;" edge="1" parent="1" source="gM34xEa_y_hhd152DctF-19" target="gM34xEa_y_hhd152DctF-23">
          <mxGeometry relative="1" as="geometry" />
        </mxCell>
        <mxCell id="gM34xEa_y_hhd152DctF-19" value="&lt;font style=&quot;font-size: 13px;&quot;&gt;scoreมากกว่าเท่ากับ50เเละน้อยกว่า55 ?&lt;/font&gt;" style="rhombus;whiteSpace=wrap;html=1;" vertex="1" parent="1">
          <mxGeometry x="171" y="910" width="170" height="140" as="geometry" />
        </mxCell>
        <mxCell id="gM34xEa_y_hhd152DctF-75" value="" style="edgeStyle=orthogonalEdgeStyle;rounded=0;orthogonalLoop=1;jettySize=auto;html=1;" edge="1" parent="1" source="gM34xEa_y_hhd152DctF-21" target="gM34xEa_y_hhd152DctF-58">
          <mxGeometry relative="1" as="geometry" />
        </mxCell>
        <mxCell id="gM34xEa_y_hhd152DctF-21" value="เเสดง D !" style="whiteSpace=wrap;html=1;" vertex="1" parent="1">
          <mxGeometry x="446" y="950" width="120" height="60" as="geometry" />
        </mxCell>
        <mxCell id="gM34xEa_y_hhd152DctF-26" value="" style="edgeStyle=orthogonalEdgeStyle;rounded=0;orthogonalLoop=1;jettySize=auto;html=1;" edge="1" parent="1" source="gM34xEa_y_hhd152DctF-23" target="gM34xEa_y_hhd152DctF-25">
          <mxGeometry relative="1" as="geometry" />
        </mxCell>
        <mxCell id="gM34xEa_y_hhd152DctF-28" value="" style="edgeStyle=orthogonalEdgeStyle;rounded=0;orthogonalLoop=1;jettySize=auto;html=1;" edge="1" parent="1" source="gM34xEa_y_hhd152DctF-23" target="gM34xEa_y_hhd152DctF-27">
          <mxGeometry relative="1" as="geometry" />
        </mxCell>
        <mxCell id="gM34xEa_y_hhd152DctF-23" value="&lt;font style=&quot;font-size: 13px;&quot;&gt;scoreมากกว่าเท่ากับ55เเละน้อยกว่า60 ?&lt;/font&gt;" style="rhombus;whiteSpace=wrap;html=1;" vertex="1" parent="1">
          <mxGeometry x="171" y="1110" width="170" height="140" as="geometry" />
        </mxCell>
        <mxCell id="gM34xEa_y_hhd152DctF-74" value="" style="edgeStyle=orthogonalEdgeStyle;rounded=0;orthogonalLoop=1;jettySize=auto;html=1;" edge="1" parent="1" source="gM34xEa_y_hhd152DctF-25" target="gM34xEa_y_hhd152DctF-59">
          <mxGeometry relative="1" as="geometry" />
        </mxCell>
        <mxCell id="gM34xEa_y_hhd152DctF-25" value="เเสดง D+ !" style="whiteSpace=wrap;html=1;" vertex="1" parent="1">
          <mxGeometry x="446" y="1150" width="120" height="60" as="geometry" />
        </mxCell>
        <mxCell id="gM34xEa_y_hhd152DctF-30" value="" style="edgeStyle=orthogonalEdgeStyle;rounded=0;orthogonalLoop=1;jettySize=auto;html=1;" edge="1" parent="1" source="gM34xEa_y_hhd152DctF-27" target="gM34xEa_y_hhd152DctF-29">
          <mxGeometry relative="1" as="geometry" />
        </mxCell>
        <mxCell id="gM34xEa_y_hhd152DctF-32" value="" style="edgeStyle=orthogonalEdgeStyle;rounded=0;orthogonalLoop=1;jettySize=auto;html=1;" edge="1" parent="1" source="gM34xEa_y_hhd152DctF-27" target="gM34xEa_y_hhd152DctF-31">
          <mxGeometry relative="1" as="geometry" />
        </mxCell>
        <mxCell id="gM34xEa_y_hhd152DctF-27" value="&lt;font style=&quot;font-size: 13px;&quot;&gt;scoreมากกว่าเท่ากับ60เเละน้อยกว่า65 ?&lt;/font&gt;" style="rhombus;whiteSpace=wrap;html=1;" vertex="1" parent="1">
          <mxGeometry x="171" y="1310" width="170" height="140" as="geometry" />
        </mxCell>
        <mxCell id="gM34xEa_y_hhd152DctF-73" value="" style="edgeStyle=orthogonalEdgeStyle;rounded=0;orthogonalLoop=1;jettySize=auto;html=1;" edge="1" parent="1" source="gM34xEa_y_hhd152DctF-29" target="gM34xEa_y_hhd152DctF-60">
          <mxGeometry relative="1" as="geometry" />
        </mxCell>
        <mxCell id="gM34xEa_y_hhd152DctF-29" value="แสดง C !" style="whiteSpace=wrap;html=1;" vertex="1" parent="1">
          <mxGeometry x="446" y="1350" width="120" height="60" as="geometry" />
        </mxCell>
        <mxCell id="gM34xEa_y_hhd152DctF-34" value="" style="edgeStyle=orthogonalEdgeStyle;rounded=0;orthogonalLoop=1;jettySize=auto;html=1;" edge="1" parent="1" source="gM34xEa_y_hhd152DctF-31" target="gM34xEa_y_hhd152DctF-33">
          <mxGeometry relative="1" as="geometry" />
        </mxCell>
        <mxCell id="gM34xEa_y_hhd152DctF-36" value="" style="edgeStyle=orthogonalEdgeStyle;rounded=0;orthogonalLoop=1;jettySize=auto;html=1;" edge="1" parent="1" source="gM34xEa_y_hhd152DctF-31" target="gM34xEa_y_hhd152DctF-35">
          <mxGeometry relative="1" as="geometry" />
        </mxCell>
        <mxCell id="gM34xEa_y_hhd152DctF-31" value="&lt;font style=&quot;font-size: 13px;&quot;&gt;scoreมากกว่าเท่ากับ65เเละน้อยกว่า70 ?&lt;/font&gt;" style="rhombus;whiteSpace=wrap;html=1;" vertex="1" parent="1">
          <mxGeometry x="171" y="1510" width="170" height="140" as="geometry" />
        </mxCell>
        <mxCell id="gM34xEa_y_hhd152DctF-72" value="" style="edgeStyle=orthogonalEdgeStyle;rounded=0;orthogonalLoop=1;jettySize=auto;html=1;" edge="1" parent="1" source="gM34xEa_y_hhd152DctF-33" target="gM34xEa_y_hhd152DctF-61">
          <mxGeometry relative="1" as="geometry" />
        </mxCell>
        <mxCell id="gM34xEa_y_hhd152DctF-33" value="แสดง C+ !" style="whiteSpace=wrap;html=1;" vertex="1" parent="1">
          <mxGeometry x="446" y="1550" width="120" height="60" as="geometry" />
        </mxCell>
        <mxCell id="gM34xEa_y_hhd152DctF-38" value="" style="edgeStyle=orthogonalEdgeStyle;rounded=0;orthogonalLoop=1;jettySize=auto;html=1;" edge="1" parent="1" source="gM34xEa_y_hhd152DctF-35" target="gM34xEa_y_hhd152DctF-37">
          <mxGeometry relative="1" as="geometry" />
        </mxCell>
        <mxCell id="gM34xEa_y_hhd152DctF-40" value="" style="edgeStyle=orthogonalEdgeStyle;rounded=0;orthogonalLoop=1;jettySize=auto;html=1;" edge="1" parent="1" source="gM34xEa_y_hhd152DctF-35" target="gM34xEa_y_hhd152DctF-39">
          <mxGeometry relative="1" as="geometry" />
        </mxCell>
        <mxCell id="gM34xEa_y_hhd152DctF-35" value="&lt;font style=&quot;font-size: 13px;&quot;&gt;scoreมากกว่าเท่ากับ70เเละน้อยกว่า75 ?&lt;/font&gt;" style="rhombus;whiteSpace=wrap;html=1;" vertex="1" parent="1">
          <mxGeometry x="171" y="1710" width="170" height="140" as="geometry" />
        </mxCell>
        <mxCell id="gM34xEa_y_hhd152DctF-71" value="" style="edgeStyle=orthogonalEdgeStyle;rounded=0;orthogonalLoop=1;jettySize=auto;html=1;" edge="1" parent="1" source="gM34xEa_y_hhd152DctF-37" target="gM34xEa_y_hhd152DctF-62">
          <mxGeometry relative="1" as="geometry" />
        </mxCell>
        <mxCell id="gM34xEa_y_hhd152DctF-37" value="แสดง B !" style="whiteSpace=wrap;html=1;" vertex="1" parent="1">
          <mxGeometry x="446" y="1750" width="120" height="60" as="geometry" />
        </mxCell>
        <mxCell id="gM34xEa_y_hhd152DctF-42" value="" style="edgeStyle=orthogonalEdgeStyle;rounded=0;orthogonalLoop=1;jettySize=auto;html=1;" edge="1" parent="1" source="gM34xEa_y_hhd152DctF-39" target="gM34xEa_y_hhd152DctF-41">
          <mxGeometry relative="1" as="geometry" />
        </mxCell>
        <mxCell id="gM34xEa_y_hhd152DctF-44" value="" style="edgeStyle=orthogonalEdgeStyle;rounded=0;orthogonalLoop=1;jettySize=auto;html=1;" edge="1" parent="1" source="gM34xEa_y_hhd152DctF-39" target="gM34xEa_y_hhd152DctF-43">
          <mxGeometry relative="1" as="geometry" />
        </mxCell>
        <mxCell id="gM34xEa_y_hhd152DctF-39" value="&lt;font style=&quot;font-size: 13px;&quot;&gt;scoreมากกว่าเท่ากับ75เเละน้อยกว่า80 ?&lt;/font&gt;" style="rhombus;whiteSpace=wrap;html=1;" vertex="1" parent="1">
          <mxGeometry x="171" y="1910" width="170" height="140" as="geometry" />
        </mxCell>
        <mxCell id="gM34xEa_y_hhd152DctF-70" value="" style="edgeStyle=orthogonalEdgeStyle;rounded=0;orthogonalLoop=1;jettySize=auto;html=1;" edge="1" parent="1" source="gM34xEa_y_hhd152DctF-41" target="gM34xEa_y_hhd152DctF-63">
          <mxGeometry relative="1" as="geometry" />
        </mxCell>
        <mxCell id="gM34xEa_y_hhd152DctF-41" value="แสดง B+ !" style="whiteSpace=wrap;html=1;" vertex="1" parent="1">
          <mxGeometry x="446" y="1950" width="120" height="60" as="geometry" />
        </mxCell>
        <mxCell id="gM34xEa_y_hhd152DctF-46" value="" style="edgeStyle=orthogonalEdgeStyle;rounded=0;orthogonalLoop=1;jettySize=auto;html=1;" edge="1" parent="1" source="gM34xEa_y_hhd152DctF-43" target="gM34xEa_y_hhd152DctF-45">
          <mxGeometry relative="1" as="geometry" />
        </mxCell>
        <mxCell id="gM34xEa_y_hhd152DctF-66" value="" style="edgeStyle=orthogonalEdgeStyle;rounded=0;orthogonalLoop=1;jettySize=auto;html=1;" edge="1" parent="1" source="gM34xEa_y_hhd152DctF-43" target="gM34xEa_y_hhd152DctF-65">
          <mxGeometry relative="1" as="geometry" />
        </mxCell>
        <mxCell id="gM34xEa_y_hhd152DctF-43" value="&lt;font style=&quot;font-size: 13px;&quot;&gt;scoreมากกว่าเท่ากับ80?&lt;/font&gt;" style="rhombus;whiteSpace=wrap;html=1;" vertex="1" parent="1">
          <mxGeometry x="171" y="2130" width="170" height="140" as="geometry" />
        </mxCell>
        <mxCell id="gM34xEa_y_hhd152DctF-69" value="" style="edgeStyle=orthogonalEdgeStyle;rounded=0;orthogonalLoop=1;jettySize=auto;html=1;" edge="1" parent="1" source="gM34xEa_y_hhd152DctF-45" target="gM34xEa_y_hhd152DctF-64">
          <mxGeometry relative="1" as="geometry" />
        </mxCell>
        <mxCell id="gM34xEa_y_hhd152DctF-45" value="เเสดง A !" style="whiteSpace=wrap;html=1;" vertex="1" parent="1">
          <mxGeometry x="446" y="2170" width="120" height="60" as="geometry" />
        </mxCell>
        <mxCell id="gM34xEa_y_hhd152DctF-49" value="&lt;span style=&quot;font-size: 16px;&quot;&gt;สิ้นสุด&lt;/span&gt;" style="ellipse;whiteSpace=wrap;html=1;" vertex="1" parent="1">
          <mxGeometry x="196" y="2410" width="120" height="80" as="geometry" />
        </mxCell>
        <mxCell id="gM34xEa_y_hhd152DctF-78" style="edgeStyle=orthogonalEdgeStyle;rounded=0;orthogonalLoop=1;jettySize=auto;html=1;entryX=0.5;entryY=0;entryDx=0;entryDy=0;" edge="1" parent="1" source="gM34xEa_y_hhd152DctF-51" target="gM34xEa_y_hhd152DctF-58">
          <mxGeometry relative="1" as="geometry" />
        </mxCell>
        <mxCell id="gM34xEa_y_hhd152DctF-51" value="" style="ellipse;whiteSpace=wrap;html=1;aspect=fixed;" vertex="1" parent="1">
          <mxGeometry x="626" y="765" width="30" height="30" as="geometry" />
        </mxCell>
        <mxCell id="gM34xEa_y_hhd152DctF-79" style="edgeStyle=orthogonalEdgeStyle;rounded=0;orthogonalLoop=1;jettySize=auto;html=1;entryX=0.5;entryY=0;entryDx=0;entryDy=0;" edge="1" parent="1" source="gM34xEa_y_hhd152DctF-58" target="gM34xEa_y_hhd152DctF-59">
          <mxGeometry relative="1" as="geometry" />
        </mxCell>
        <mxCell id="gM34xEa_y_hhd152DctF-58" value="" style="ellipse;whiteSpace=wrap;html=1;aspect=fixed;" vertex="1" parent="1">
          <mxGeometry x="626" y="965" width="30" height="30" as="geometry" />
        </mxCell>
        <mxCell id="gM34xEa_y_hhd152DctF-80" style="edgeStyle=orthogonalEdgeStyle;rounded=0;orthogonalLoop=1;jettySize=auto;html=1;entryX=0.5;entryY=0;entryDx=0;entryDy=0;" edge="1" parent="1" source="gM34xEa_y_hhd152DctF-59" target="gM34xEa_y_hhd152DctF-60">
          <mxGeometry relative="1" as="geometry" />
        </mxCell>
        <mxCell id="gM34xEa_y_hhd152DctF-59" value="" style="ellipse;whiteSpace=wrap;html=1;aspect=fixed;" vertex="1" parent="1">
          <mxGeometry x="626" y="1165" width="30" height="30" as="geometry" />
        </mxCell>
        <mxCell id="gM34xEa_y_hhd152DctF-81" style="edgeStyle=orthogonalEdgeStyle;rounded=0;orthogonalLoop=1;jettySize=auto;html=1;entryX=0.5;entryY=0;entryDx=0;entryDy=0;" edge="1" parent="1" source="gM34xEa_y_hhd152DctF-60" target="gM34xEa_y_hhd152DctF-61">
          <mxGeometry relative="1" as="geometry" />
        </mxCell>
        <mxCell id="gM34xEa_y_hhd152DctF-60" value="" style="ellipse;whiteSpace=wrap;html=1;aspect=fixed;" vertex="1" parent="1">
          <mxGeometry x="626" y="1365" width="30" height="30" as="geometry" />
        </mxCell>
        <mxCell id="gM34xEa_y_hhd152DctF-82" style="edgeStyle=orthogonalEdgeStyle;rounded=0;orthogonalLoop=1;jettySize=auto;html=1;entryX=0.5;entryY=0;entryDx=0;entryDy=0;" edge="1" parent="1" source="gM34xEa_y_hhd152DctF-61" target="gM34xEa_y_hhd152DctF-62">
          <mxGeometry relative="1" as="geometry" />
        </mxCell>
        <mxCell id="gM34xEa_y_hhd152DctF-61" value="" style="ellipse;whiteSpace=wrap;html=1;aspect=fixed;" vertex="1" parent="1">
          <mxGeometry x="626" y="1565" width="30" height="30" as="geometry" />
        </mxCell>
        <mxCell id="gM34xEa_y_hhd152DctF-83" style="edgeStyle=orthogonalEdgeStyle;rounded=0;orthogonalLoop=1;jettySize=auto;html=1;entryX=0.5;entryY=0;entryDx=0;entryDy=0;" edge="1" parent="1" source="gM34xEa_y_hhd152DctF-62" target="gM34xEa_y_hhd152DctF-63">
          <mxGeometry relative="1" as="geometry" />
        </mxCell>
        <mxCell id="gM34xEa_y_hhd152DctF-62" value="" style="ellipse;whiteSpace=wrap;html=1;aspect=fixed;" vertex="1" parent="1">
          <mxGeometry x="626" y="1765" width="30" height="30" as="geometry" />
        </mxCell>
        <mxCell id="gM34xEa_y_hhd152DctF-84" style="edgeStyle=orthogonalEdgeStyle;rounded=0;orthogonalLoop=1;jettySize=auto;html=1;entryX=0.5;entryY=0;entryDx=0;entryDy=0;" edge="1" parent="1" source="gM34xEa_y_hhd152DctF-63" target="gM34xEa_y_hhd152DctF-64">
          <mxGeometry relative="1" as="geometry" />
        </mxCell>
        <mxCell id="gM34xEa_y_hhd152DctF-63" value="" style="ellipse;whiteSpace=wrap;html=1;aspect=fixed;" vertex="1" parent="1">
          <mxGeometry x="626" y="1965" width="30" height="30" as="geometry" />
        </mxCell>
        <mxCell id="gM34xEa_y_hhd152DctF-68" style="edgeStyle=orthogonalEdgeStyle;rounded=0;orthogonalLoop=1;jettySize=auto;html=1;entryX=1;entryY=0.5;entryDx=0;entryDy=0;" edge="1" parent="1" source="gM34xEa_y_hhd152DctF-64" target="gM34xEa_y_hhd152DctF-65">
          <mxGeometry relative="1" as="geometry">
            <Array as="points">
              <mxPoint x="641" y="2335" />
            </Array>
          </mxGeometry>
        </mxCell>
        <mxCell id="gM34xEa_y_hhd152DctF-64" value="" style="ellipse;whiteSpace=wrap;html=1;aspect=fixed;" vertex="1" parent="1">
          <mxGeometry x="626" y="2185" width="30" height="30" as="geometry" />
        </mxCell>
        <mxCell id="gM34xEa_y_hhd152DctF-67" value="" style="edgeStyle=orthogonalEdgeStyle;rounded=0;orthogonalLoop=1;jettySize=auto;html=1;" edge="1" parent="1" source="gM34xEa_y_hhd152DctF-65" target="gM34xEa_y_hhd152DctF-49">
          <mxGeometry relative="1" as="geometry" />
        </mxCell>
        <mxCell id="gM34xEa_y_hhd152DctF-65" value="" style="ellipse;whiteSpace=wrap;html=1;aspect=fixed;" vertex="1" parent="1">
          <mxGeometry x="241" y="2320" width="30" height="30" as="geometry" />
        </mxCell>
      </root>
    </mxGraphModel>
  </diagram>
</mxfile>
